<!-- Generated by IcoMoon.io -->
<svg version="1.1" xmlns="http://www.w3.org/2000/svg" width="32" height="32" viewBox="0 0 32 32">
<title>arrow-shuffle</title>
<path d="M1.778 9.865h6.222c1.308 0 2.476 0.695 3.291 1.78 0.578-1.074 1.296-2.068 2.117-2.955-1.428-1.463-3.317-2.38-5.408-2.38h-6.222c-0.983 0-1.778 0.796-1.778 1.778s0.795 1.778 1.778 1.778z"></path>
<path d="M15.44 15.396c0.98-2.946 4.011-5.531 6.487-5.531h3.268l-2.299 2.299c-0.695 0.695-0.695 1.819 0 2.514 0.347 0.347 0.802 0.521 1.257 0.521s0.91-0.174 1.257-0.521l6.59-6.59-6.59-6.59c-0.695-0.695-1.819-0.695-2.514 0s-0.695 1.819 0 2.514l2.299 2.299h-3.268c-4.043 0-8.375 3.497-9.861 7.963l-0.839 2.508c-1.14 3.424-3.684 5.529-5.004 5.529h-4.444c-0.983 0-1.778 0.796-1.778 1.778s0.795 1.778 1.778 1.778h4.444c3.266 0 6.868-3.422 8.379-7.963l0.839-2.507z"></path>
<path d="M22.896 17.497c-0.695 0.695-0.695 1.819 0 2.514l2.299 2.299h-4.156c-2.254 0-4.142-1.584-4.784-3.748-0.455 1.333-1.115 2.665-1.938 3.884 1.575 2.066 3.988 3.419 6.722 3.419h4.156l-2.299 2.299c-0.695 0.695-0.695 1.819 0 2.514 0.347 0.347 0.802 0.521 1.257 0.521s0.91-0.174 1.257-0.521l6.59-6.59-6.59-6.59c-0.695-0.695-1.819-0.695-2.514 0z"></path>
</svg>
