<!-- Generated by IcoMoon.io -->
<svg version="1.1" xmlns="http://www.w3.org/2000/svg" width="35" height="32" viewBox="0 0 35 32">
<title>backup</title>
<path d="M19.81 1.143c8.203 0 14.857 6.655 14.857 14.857s-6.655 14.857-14.857 14.857c-3.405 0-6.578-1.161-9.054-3.095l2.321-2.321c1.935 1.316 4.256 2.089 6.732 2.089 6.423 0 11.53-5.107 11.53-11.53s-5.107-11.53-11.53-11.53-11.53 5.107-11.53 11.53h4.952l-6.655 6.578-6.578-6.578h4.952c0-8.203 6.655-14.857 14.857-14.857zM23.137 16c0 1.78-1.548 3.327-3.327 3.327s-3.327-1.548-3.327-3.327 1.548-3.327 3.327-3.327 3.327 1.548 3.327 3.327z"></path>
</svg>
