<!-- Generated by IcoMoon.io -->
<svg version="1.1" xmlns="http://www.w3.org/2000/svg" width="35" height="32" viewBox="0 0 35 32">
<title>devices_other</title>
<path d="M32.101 25.623v-12.855h-6.39v12.855h6.39zM33.68 9.61c0.827 0 1.654 0.752 1.654 1.579v16.013c0 0.827-0.827 1.654-1.654 1.654h-9.623c-0.827 0-1.579-0.827-1.579-1.654v-16.013c0-0.827 0.752-1.579 1.579-1.579h9.623zM16.088 24.796c1.353 0 2.406-1.052 2.406-2.406s-1.052-2.406-2.406-2.406-2.406 1.052-2.406 2.406 1.053 2.406 2.406 2.406zM19.245 16v2.857c0.977 0.902 1.654 2.105 1.654 3.533s-0.677 2.706-1.654 3.609v2.857h-6.39v-2.857c-0.977-0.902-1.579-2.18-1.579-3.609s0.601-2.631 1.579-3.533v-2.857h6.39zM3.232 6.377v19.246h6.39v3.233h-6.39c-1.729 0-3.233-1.504-3.233-3.233v-19.246c0-1.729 1.504-3.233 3.233-3.233h28.868v3.233h-28.868z"></path>
</svg>
