<!-- Generated by IcoMoon.io -->
<svg version="1.1" xmlns="http://www.w3.org/2000/svg" width="32" height="32" viewBox="0 0 32 32">
<title>download2</title>
<path d="M29.091 21.818c-0.8 0-1.455 0.655-1.455 1.455v4.364c0 0.8-0.655 1.455-1.455 1.455h-20.364c-0.8 0-1.455-0.655-1.455-1.455v-4.364c0-0.8-0.655-1.455-1.455-1.455s-1.455 0.655-1.455 1.455v4.364c0 2.409 1.955 4.364 4.364 4.364h20.364c2.409 0 4.364-1.955 4.364-4.364v-4.364c0-0.8-0.655-1.455-1.455-1.455z"></path>
<path d="M14.964 22.845c0.018 0.018 0.036 0.036 0.055 0.055 0 0 0 0 0 0s0.009 0.009 0.009 0.009c0 0 0 0 0.009 0.009 0 0 0 0 0.009 0.009 0 0 0.009 0.009 0.009 0.009s0 0 0 0 0.009 0.009 0.009 0.009c0 0 0 0 0 0 0.109 0.091 0.218 0.155 0.336 0.209 0 0 0 0 0.009 0 0 0 0 0 0.009 0 0.155 0.064 0.327 0.109 0.509 0.118 0 0 0 0 0 0 0.009 0 0.009 0 0.018 0 0 0 0 0 0 0s0.009 0 0.009 0c0 0 0.009 0 0.009 0s0.009 0 0.009 0 0.009 0 0.018 0 0.009 0 0.018 0c0 0 0.009 0 0.009 0s0.009 0 0.009 0c0 0 0.009 0 0.009 0s0 0 0 0c0.009 0 0.009 0 0.018 0 0 0 0 0 0 0 0.182-0.009 0.355-0.045 0.509-0.118 0 0 0 0 0 0s0.009 0 0.009 0c0 0 0.009 0 0.009 0s0 0 0 0c0.109-0.045 0.209-0.109 0.309-0.191 0 0 0 0 0 0s0.009-0.009 0.009-0.009c0 0 0 0 0 0s0.009-0.009 0.009-0.009c0 0 0 0 0.009-0.009 0 0 0 0 0.009-0.009 0 0 0.009-0.009 0.009-0.009s0 0 0 0c0.027-0.018 0.045-0.045 0.073-0.073l5.809-5.809c0.564-0.564 0.564-1.491 0-2.055s-1.491-0.564-2.055 0l-3.309 3.327v-16.855c0-0.8-0.655-1.455-1.455-1.455s-1.455 0.655-1.455 1.455v16.855l-3.336-3.336c-0.564-0.564-1.491-0.564-2.055 0s-0.564 1.491 0 2.055l5.809 5.818z"></path>
</svg>
