<!-- Generated by IcoMoon.io -->
<svg version="1.1" xmlns="http://www.w3.org/2000/svg" width="32" height="32" viewBox="0 0 32 32">
<title>exchange-arrows</title>
<path d="M0.571 12.571h24.572v3.429c0 0.155 0.056 0.289 0.169 0.402s0.247 0.17 0.402 0.17c0.167 0 0.304-0.053 0.41-0.161l5.715-5.714c0.107-0.107 0.16-0.244 0.16-0.411s-0.054-0.304-0.161-0.411l-5.696-5.697c-0.143-0.119-0.286-0.179-0.429-0.179-0.166 0-0.304 0.054-0.41 0.161s-0.16 0.244-0.16 0.411v3.429h-24.572c-0.155 0-0.289 0.056-0.402 0.17s-0.17 0.247-0.17 0.402v3.429c0 0.155 0.056 0.289 0.17 0.402s0.247 0.17 0.402 0.17z"></path>
<path d="M31.429 19.429h-24.572v-3.429c0-0.155-0.057-0.289-0.17-0.402s-0.247-0.17-0.402-0.17c-0.167 0-0.304 0.054-0.411 0.161l-5.714 5.714c-0.107 0.107-0.161 0.244-0.161 0.411 0 0.155 0.053 0.286 0.161 0.392l5.697 5.715c0.143 0.119 0.286 0.178 0.429 0.178 0.155 0 0.289-0.056 0.402-0.169s0.17-0.247 0.17-0.402v-3.429h24.572c0.155 0 0.289-0.056 0.402-0.169s0.169-0.247 0.169-0.402v-3.429c0-0.155-0.056-0.289-0.169-0.402s-0.247-0.169-0.402-0.169z"></path>
</svg>
