<!-- Generated by IcoMoon.io -->
<svg version="1.1" xmlns="http://www.w3.org/2000/svg" width="32" height="32" viewBox="0 0 32 32">
<title>menu2</title>
<path d="M30.4 14.4h-28.8c-0.88 0-1.6 0.72-1.6 1.6s0.72 1.6 1.6 1.6h28.8c0.88 0 1.6-0.72 1.6-1.6s-0.72-1.6-1.6-1.6z"></path>
<path d="M1.6 8h28.8c0.88 0 1.6-0.72 1.6-1.6s-0.72-1.6-1.6-1.6h-28.8c-0.88 0-1.6 0.72-1.6 1.6s0.72 1.6 1.6 1.6z"></path>
<path d="M30.4 24h-28.8c-0.88 0-1.6 0.72-1.6 1.6s0.72 1.6 1.6 1.6h28.8c0.88 0 1.6-0.72 1.6-1.6s-0.72-1.6-1.6-1.6z"></path>
</svg>
