<!-- Generated by IcoMoon.io -->
<svg version="1.1" xmlns="http://www.w3.org/2000/svg" width="32" height="32" viewBox="0 0 32 32">
<title>perm_contact_calendar</title>
<path d="M25.593 27.204v-1.574c0-3.222-6.37-4.946-9.593-4.946s-9.592 1.724-9.592 4.946v1.574h19.185zM16 8.019c-2.623 0-4.796 2.173-4.796 4.796s2.173 4.796 4.796 4.796 4.796-2.173 4.796-4.796-2.173-4.796-4.796-4.796zM27.166 3.222c1.724 0 3.222 1.499 3.222 3.222v22.333c0 1.724-1.499 3.222-3.222 3.222h-22.333c-1.799 0-3.222-1.499-3.222-3.222v-22.333c0-1.724 1.424-3.222 3.222-3.222h1.574v-3.222h3.222v3.222h12.74v-3.222h3.222v3.222h1.574z"></path>
</svg>
