<!-- Generated by IcoMoon.io -->
<svg version="1.1" xmlns="http://www.w3.org/2000/svg" width="32" height="32" viewBox="0 0 32 32">
<title>upload2</title>
<path d="M29.098 21.812c-0.8 0-1.455 0.655-1.455 1.455v4.366c0 0.8-0.655 1.455-1.455 1.455h-20.375c-0.8 0-1.455-0.655-1.455-1.455v-4.366c0-0.8-0.655-1.455-1.455-1.455s-1.455 0.655-1.455 1.455v4.366c0 2.41 1.956 4.366 4.366 4.366h20.375c2.41 0 4.366-1.956 4.366-4.366v-4.366c0-0.8-0.655-1.455-1.455-1.455z"></path>
<path d="M11.206 8.287l3.338-3.338v16.864c0 0.8 0.655 1.455 1.455 1.455s1.455-0.655 1.455-1.455v-16.864l3.338 3.338c0.282 0.282 0.655 0.428 1.028 0.428s0.746-0.146 1.028-0.428c0.564-0.564 0.564-1.492 0-2.056l-5.821-5.821c-0.018-0.018-0.036-0.036-0.055-0.055 0 0 0 0-0.009 0 0 0-0.009-0.009-0.009-0.009s-0.009 0-0.009-0.009c0 0 0 0-0.009 0 0 0-0.009-0.009-0.009-0.009s0 0 0 0c-0.109-0.1-0.236-0.173-0.373-0.227 0 0 0 0 0 0s-0.009 0-0.009 0c0 0 0 0-0.009 0 0 0 0 0-0.009 0-0.136-0.055-0.282-0.091-0.437-0.1 0 0 0 0 0 0s-0.009 0-0.009 0c0 0-0.009 0-0.009 0s-0.009 0-0.009 0c0 0-0.009 0-0.009 0s0 0-0.009 0c-0.036 0-0.073 0-0.109 0 0 0 0 0-0.009 0 0 0-0.009 0-0.009 0s-0.009 0-0.009 0c0 0-0.009 0-0.009 0s-0.009 0-0.009 0c0 0 0 0 0 0-0.146 0.009-0.291 0.045-0.428 0.1 0 0 0 0 0 0s-0.009 0-0.009 0c0 0-0.009 0-0.009 0s0 0 0 0c-0.146 0.055-0.273 0.136-0.4 0.246 0 0 0 0 0 0s-0.009 0.009-0.009 0.009c0 0 0 0 0 0s-0.009 0.009-0.009 0.009c0 0-0.009 0.009-0.009 0.009s0 0 0 0c-0.018 0.009-0.027 0.027-0.045 0.045l-5.821 5.821c-0.564 0.564-0.564 1.492 0 2.056s1.492 0.564 2.056-0.009z"></path>
</svg>
